<?xml version="1.0" encoding="utf-8"?>
<!-- Generator: Adobe Illustrator 15.1.0, SVG Export Plug-In  -->
<!DOCTYPE svg PUBLIC "-//W3C//DTD SVG 1.1//EN" "http://www.w3.org/Graphics/SVG/1.1/DTD/svg11.dtd" [
	<!ENTITY ns_flows "http://ns.adobe.com/Flows/1.0/">
]>
<svg version="1.1"
	 xmlns="http://www.w3.org/2000/svg" xmlns:xlink="http://www.w3.org/1999/xlink" xmlns:a="http://ns.adobe.com/AdobeSVGViewerExtensions/3.0/"
	 x="0px" y="0px" width="250px" height="250px" viewBox="-14.253 -14.871 250 250"
	 overflow="visible" enable-background="new -14.253 -14.871 250 250" xml:space="preserve">
<defs>
</defs>
<rect x="109.417" y="161.922" fill="#FFFFFF" width="4.324" height="1.462"/>
<rect x="109.852" y="136.517" transform="matrix(0.7071 -0.7071 0.7071 0.7071 -64.9966 119.2064)" fill="#FFFFFF" width="3.088" height="3.089"/>
<rect x="85.487" y="159.876" transform="matrix(0.7071 -0.7071 0.7071 0.7071 -88.6506 108.8193)" fill="#FFFFFF" width="3.088" height="3.089"/>
<rect x="133.85" y="159.98" transform="matrix(0.7071 -0.7071 0.7071 0.7071 -74.5588 143.047)" fill="#FFFFFF" width="3.088" height="3.089"/>
<rect x="108.583" y="186.758" fill="#FFFFFF" width="3.088" height="3.089"/>
<rect x="109.417" y="161.922" fill="#FFFFFF" width="4.324" height="1.462"/>
<rect x="109.852" y="136.517" transform="matrix(0.7071 -0.7071 0.7071 0.7071 -64.9966 119.2064)" fill="#FFFFFF" width="3.088" height="3.089"/>
<rect x="85.487" y="159.876" transform="matrix(0.7071 -0.7071 0.7071 0.7071 -88.6506 108.8193)" fill="#FFFFFF" width="3.088" height="3.089"/>
<rect x="133.85" y="159.98" transform="matrix(0.7071 -0.7071 0.7071 0.7071 -74.5588 143.047)" fill="#FFFFFF" width="3.088" height="3.089"/>
<rect x="108.583" y="186.758" fill="#FFFFFF" width="3.088" height="3.089"/>
<path fill="#AA8D49" stroke="#000000" d="M61.413,171.542L49.08,158.209l-21-42.333l0.333-4L10.08,94.542l0.333-5.666l49-66.667
	l42.667-10.333l57,17.666l51.333,59.667l-22.667,22v3.333l-19.333,42.667l-12,13.667l-1.333-1l-26.667,33.333
	c0,0-19,16.667-35.667,0.333l-29.333-32.666L61.413,171.542z"/>
<path fill="#0A823C" d="M111.064,204.118c-10.869,0-17.209-8.151-17.209-8.151L52.08,149.542l-15.667-33.333l-1.667-5L16.08,93.542
	l47.333-64.333l38.667-10.333l54,17.666l41.667,54l-17.667,18l1,4.667l-16.333,36c0,0-30.306,37.252-38.157,45.403
	C118.74,202.764,114.688,204.118,111.064,204.118z"/>
<text transform="matrix(1 0 0 1 0 76.0537)" fill="#FF0000" font-family="'Arial-BoldMT'" font-size="11">331</text>
<text transform="matrix(1 0 0 1 26.8369 40.126)" fill="#FF0000" font-family="'Arial-BoldMT'" font-size="11">378</text>
<text transform="matrix(1 0 0 1 108.4209 11.2705)" fill="#FF0000" font-family="'Arial-BoldMT'" font-size="11">401</text>
<text transform="matrix(1 0 0 1 85.4204 9.4375)" fill="#FF0000" font-family="'Arial-BoldMT'" font-size="11">405</text>
<text transform="matrix(1 0 0 1 164.9941 29.7607)" fill="#FF0000" font-family="'Arial-BoldMT'" font-size="11">381</text>
<text transform="matrix(1 0 0 1 203.4482 78.7021)" fill="#FF0000" font-family="'Arial-BoldMT'" font-size="11">326</text>
<polygon fill="#E5E5E5" points="202.556,172.171 210.109,184.288 212.793,184.517 "/>
<polygon fill="#DDDDDD" points="200.652,194.993 210.127,184.31 212.811,184.532 "/>
<polygon fill="#999999" points="200.631,194.953 212.698,187.321 212.91,184.637 "/>
<polygon fill="#727272" points="202.506,172.172 213.088,181.76 212.837,184.442 "/>
<polygon fill="#DDDDDD" points="225.165,174.312 213.049,181.866 212.818,184.551 "/>
<polygon fill="#D1D1D1" points="223.375,196.854 212.714,187.354 212.943,184.672 "/>
<polygon fill="#999999" points="225.145,174.286 215.577,184.886 212.895,184.64 "/>
<polygon fill="#727272" points="223.383,196.898 215.713,184.854 213.028,184.649 "/>
<g>
	<text transform="matrix(0.7647 -0.6444 0.6444 0.7647 200.3921 173.9336)" font-family="'TimesNewRomanPSMT'" font-size="7.6325">N</text>
</g>
<g>
	<text transform="matrix(0.7647 -0.6444 0.6444 0.7647 197.2788 201.1904)" font-family="'TimesNewRomanPSMT'" font-size="7.6325">W</text>
</g>
<g>
	<text transform="matrix(0.7647 -0.6444 0.6444 0.7647 225.4497 202.3574)" font-family="'TimesNewRomanPSMT'" font-size="7.6325">S</text>
</g>
<g>
	<text transform="matrix(0.7647 -0.6444 0.6444 0.7647 226.6626 176.3916)" font-family="'TimesNewRomanPSMT'" font-size="7.6325">E</text>
</g>
<circle fill="#A98C48" cx="111.336" cy="162.831" r="5.042"/>
<path fill="#A98C48" d="M141.236,158.872l3-3.666c0,0-9.381-26.161-32.999-26c-24.027,0.163-34.667,26-34.667,26l3.667,3
	l-2.443,2.93l25.152,25.181c0,0-1.321,11.223,7.816,11.223s7.909-10.366,7.837-11.465l24.689-24.609L141.236,158.872z
	 M130.08,165.622l-16.9,16.901h-4.634l-16.969-16.971v-5.126l16.957-16.956h4.657l16.889,16.887V165.622z"/>
<rect x="108.92" y="161.806" fill="#FFFFFF" stroke="#FFFFFF" width="3.98" height="1.551"/>
<rect x="84.16" y="159.683" transform="matrix(0.7073 -0.7069 0.7069 0.7073 -88.881 107.7626)" fill="#FFFFFF" stroke="#FFFFFF" width="3.045" height="3.043"/>
<rect x="134.634" y="159.683" transform="matrix(0.7073 -0.7069 0.7069 0.7073 -74.1054 143.4454)" fill="#FFFFFF" stroke="#FFFFFF" width="3.045" height="3.043"/>
<rect x="109.398" y="134.445" transform="matrix(0.7069 -0.7073 0.7073 0.7069 -63.6597 118.2957)" fill="#FFFFFF" stroke="#FFFFFF" width="3.045" height="3.044"/>
<polygon fill="#FFFFFF" stroke="#FFFFFF" points="112.446,187.013 110.908,188.534 109.4,187.013 109.4,185.49 112.446,185.49 "/>
<polyline fill="none" stroke="#FFFFFF" stroke-width="1.5" points="220.312,79.38 110.924,188.595 3.688,81.315 "/>
</svg>
